<svg id="Layer_1" data-name="Layer 1" xmlns="http://www.w3.org/2000/svg" viewBox="0 0 720 720"><defs><style>.cls-1{fill:#fff;}</style></defs><title>Event CoverArtboard 17</title><path class="cls-1" d="M594.72,537.22H125.28V183.38c2.61-.7,465.21-.85,469.44-.1ZM180.92,215.8c1.52,1.61,2.49,2.66,3.49,3.68l110.65,112q24.76,25.06,49.52,50.14c2.72,2.76,5.69,5.05,9.48,6,8.67,2.13,16.4.78,22.94-5.85q30.69-31.08,61.53-62Q488.59,269.38,538.62,219c.87-.89,1.69-1.83,2.93-3.18ZM538,504.39l.42-.69L421.34,383.79c-1.13,1.07-2,1.89-2.88,2.75-6.21,6.24-12.4,12.51-18.63,18.74a55,55,0,0,1-78.13-.16c-6.55-6.6-13.06-13.23-19.61-19.84-.75-.76-1.58-1.43-2.51-2.27l-117,119.48a12.66,12.66,0,0,0-.94,1.12.49.49,0,0,0,0,.32,2.32,2.32,0,0,0,.15.46ZM276.45,359.77c-4.28-5.48-115.9-118-118.68-119.57v235c0,.86-.06,1.72,0,2.57s.3,1.48.56,2.67Zm167.91.67c39.14,40,78,79.9,117.48,120.24V242.15Z"/></svg>